<svg width="150" height="150" xmlns="http://www.w3.org/2000/svg" viewBox="0 0 512 512"><path d="M256 48C141.1 48 48 141.1 48 256s93.1 208 208 208 208-93.1 208-208S370.9 48 256 48zm0 336c-70.7 0-128-57.3-128-128s57.3-128 128-128 128 57.3 128 128-57.3 128-128 128z" fill="#e91e63"/><path d="M296 136c-32.8-14.9-71.1-8.9-97.4 14.5-26.3 23.3-36.6 58.9-28.1 91.5 4.9 18.6 16.6 35.1 32.9 45.6l8.3-7.9c-13.4-8.5-22.8-21.6-26.8-36.7-6.8-26.3 1.5-54.7 22-73.3 20.5-18.7 50.1-24 76.1-14.4l13-19.3z" fill="#e91e63"><animateTransform attributeName="transform" attributeType="XML" type="rotate" from="0 256 256" to="360 256 256" dur="2s" repeatCount="indefinite"/></path></svg>
