<svg width="150" height="150" xmlns="http://www.w3.org/2000/svg" viewBox="0 0 512 512"><path d="M466.5 83.7l-192-80a48.15 48.15 0 0 0-36.9 0l-192 80C27.7 91.1 16 108.6 16 128c0 198.5 114.5 335.7 221.5 380.3 11.8 4.9 25.1 4.9 36.9 0C360.1 472.6 496 349.3 496 128c0-19.4-11.7-36.9-29.5-44.3zM256 464c-103.5-52.3-208-196.9-208-336 0-4.5 3.5-8.5 6.8-10.1l192-80c.9-.4 1.9-.4 2.8 0l192 80c3.3 1.6 6.9 5.7 6.9 10.2 0 140.7-108 292.7-208 336z" fill="#e91e63"/><path d="M296 304h-80v-96h80zm-112-96a32 32 0 0 1 32-32h80a32 32 0 0 1 32 32v96a32 32 0 0 1-32 32h-80a32 32 0 0 1-32-32z" fill="#e91e63"/><path d="M256 184c-13.3 0-24 10.7-24 24s10.7 24 24 24 24-10.7 24-24-10.7-24-24-24z" fill="#e91e63"/></svg>
